G75*
G70*
%OFA0B0*%
%FSLAX24Y24*%
%IPPOS*%
%LPD*%
%AMOC8*
5,1,8,0,0,1.08239X$1,22.5*
%
%ADD10C,0.0820*%
%ADD11R,0.0789X0.0710*%
%ADD12R,0.0513X0.0474*%
%ADD13R,0.0950X0.0320*%
%ADD14OC8,0.0820*%
%ADD15OC8,0.0930*%
D10*
X010271Y001496D03*
X011411Y001496D03*
X013841Y001646D03*
X014841Y001646D03*
X014841Y003246D03*
X013841Y003246D03*
X013841Y004846D03*
X014841Y004846D03*
X014841Y006496D03*
X013841Y006496D03*
D11*
X015741Y006847D03*
X015741Y005745D03*
X015741Y004647D03*
X015741Y003545D03*
X012841Y002397D03*
X015741Y002347D03*
X015741Y001245D03*
X012841Y001295D03*
X009541Y005695D03*
X008541Y005695D03*
X008541Y006797D03*
X009541Y006797D03*
D12*
X010507Y002396D03*
X011176Y002396D03*
D13*
X011871Y002996D03*
X009811Y002996D03*
X009811Y003496D03*
X011871Y003496D03*
X011871Y003996D03*
X009811Y003996D03*
X009811Y004496D03*
X011871Y004496D03*
D14*
X011841Y005546D03*
X010841Y005546D03*
X012841Y005546D03*
X012841Y006546D03*
X011841Y006546D03*
X010841Y006546D03*
D15*
X008591Y003896D03*
X008541Y002196D03*
M02*
