G75*
G70*
%OFA0B0*%
%FSLAX24Y24*%
%IPPOS*%
%LPD*%
%AMOC8*
5,1,8,0,0,1.08239X$1,22.5*
%
%ADD10C,0.0120*%
%ADD11C,0.0740*%
%ADD12R,0.0709X0.0630*%
%ADD13R,0.0433X0.0394*%
%ADD14R,0.0870X0.0240*%
%ADD15OC8,0.0740*%
%ADD16OC8,0.0850*%
%ADD17C,0.0100*%
%ADD18C,0.0080*%
%ADD19C,0.0400*%
D10*
X007841Y000746D02*
X007841Y007346D01*
X016291Y007346D01*
X016291Y000746D01*
X007841Y000746D01*
D11*
X010271Y001496D03*
X011411Y001496D03*
X013841Y001646D03*
X014841Y001646D03*
X014841Y003246D03*
X013841Y003246D03*
X013841Y004846D03*
X014841Y004846D03*
X014841Y006496D03*
X013841Y006496D03*
D12*
X015741Y006847D03*
X015741Y005745D03*
X015741Y004647D03*
X015741Y003545D03*
X012841Y002397D03*
X015741Y002347D03*
X015741Y001245D03*
X012841Y001295D03*
X009541Y005695D03*
X008541Y005695D03*
X008541Y006797D03*
X009541Y006797D03*
D13*
X010507Y002396D03*
X011176Y002396D03*
D14*
X011871Y002996D03*
X009811Y002996D03*
X009811Y003496D03*
X011871Y003496D03*
X011871Y003996D03*
X009811Y003996D03*
X009811Y004496D03*
X011871Y004496D03*
D15*
X011841Y005546D03*
X010841Y005546D03*
X012841Y005546D03*
X012841Y006546D03*
X011841Y006546D03*
X010841Y006546D03*
D16*
X008591Y003896D03*
X008541Y002196D03*
D17*
X009811Y002996D02*
X010411Y002396D01*
X010507Y002396D01*
X010841Y002730D02*
X011176Y002396D01*
X010841Y002730D02*
X010841Y004246D01*
X011091Y004496D01*
X011871Y004496D01*
D18*
X012241Y004946D02*
X012441Y004746D01*
X012441Y004046D01*
X011941Y004046D01*
X011871Y003996D01*
X010541Y004046D02*
X010541Y004446D01*
X010141Y004546D02*
X009841Y004546D01*
X009811Y004496D01*
X010141Y004546D02*
X010641Y005046D01*
X011341Y005046D01*
X011341Y006046D01*
X012041Y006046D01*
X012341Y005746D01*
X012341Y005346D01*
X012641Y005046D01*
X012641Y002646D01*
X012841Y002446D01*
X012841Y002397D01*
X012141Y002546D02*
X012141Y002746D01*
X011941Y002946D01*
X011871Y002996D01*
X011341Y002746D02*
X011241Y002846D01*
X011241Y003446D01*
X011841Y003446D01*
X011871Y003496D01*
X009811Y003496D02*
X009741Y003546D01*
X009441Y003546D01*
X009241Y003746D01*
X009241Y002746D01*
X009341Y002646D01*
X009341Y001646D01*
X009141Y001946D02*
X008941Y001746D01*
X008941Y001246D01*
X009441Y001246D01*
X009741Y001546D01*
X009741Y001846D01*
X010341Y002446D01*
X010507Y002396D01*
X011176Y002396D02*
X011241Y002346D01*
X011341Y002246D01*
X011341Y001546D01*
X011411Y001496D01*
X011441Y001446D01*
X011441Y001346D01*
X012841Y001346D01*
X012841Y001295D01*
X012841Y001346D02*
X013341Y001846D01*
X013341Y002746D01*
X013141Y002946D01*
X013141Y005246D01*
X012841Y005546D01*
X013341Y005746D02*
X013041Y006046D01*
X012341Y006046D01*
X011841Y006546D01*
X010841Y006546D02*
X010841Y006046D01*
X011341Y006046D01*
X009541Y005695D02*
X009541Y004946D01*
X009141Y005046D02*
X009141Y003846D01*
X009241Y003746D01*
X008641Y003846D02*
X008591Y003896D01*
X008041Y004446D01*
X008041Y006246D01*
X008541Y006746D01*
X008541Y006797D01*
X008541Y006846D01*
X009541Y006846D01*
X009541Y006797D01*
X009541Y006746D01*
X010741Y005546D01*
X010841Y005546D01*
X009141Y005046D02*
X008541Y005646D01*
X008541Y005695D01*
X013341Y005746D02*
X013341Y003046D01*
X013541Y002846D01*
X013541Y001946D01*
X013841Y001646D01*
X015241Y001946D02*
X015341Y001846D01*
X015341Y001646D01*
X015741Y001246D01*
X015741Y001245D01*
X015241Y001946D02*
X015241Y002946D01*
X015641Y003346D01*
X015741Y003545D01*
X015741Y003446D01*
X015641Y003346D01*
X014341Y004646D01*
X014341Y005646D01*
X013541Y005646D01*
X013541Y006046D01*
X013341Y006246D01*
X013341Y006746D01*
X013041Y007046D01*
X009541Y007046D01*
X009541Y006846D01*
X014841Y006846D02*
X014841Y006496D01*
X014841Y006846D02*
X015741Y006846D01*
X015741Y006847D01*
X015741Y005745D02*
X015741Y005646D01*
X014341Y005646D01*
X014841Y004846D02*
X014841Y004746D01*
X015741Y004746D01*
X015741Y004647D01*
X010541Y004046D02*
X009841Y004046D01*
X009811Y003996D01*
X008641Y003846D02*
X008641Y003046D01*
X009141Y002546D01*
X009141Y001946D01*
X011741Y002246D02*
X011741Y002746D01*
X011341Y002746D01*
X015741Y002946D02*
X015741Y002347D01*
D19*
X015741Y002946D03*
X012141Y002546D03*
X011741Y002246D03*
X009341Y001646D03*
X010541Y004446D03*
X009541Y004946D03*
X012241Y004946D03*
M02*
