G75*
G70*
%OFA0B0*%
%FSLAX24Y24*%
%IPPOS*%
%LPD*%
%AMOC8*
5,1,8,0,0,1.08239X$1,22.5*
%
%ADD10C,0.0740*%
%ADD11OC8,0.0740*%
%ADD12OC8,0.0850*%
%ADD13C,0.0080*%
%ADD14C,0.0400*%
D10*
X010271Y001496D03*
X011411Y001496D03*
X013841Y001646D03*
X014841Y001646D03*
X014841Y003246D03*
X013841Y003246D03*
X013841Y004846D03*
X014841Y004846D03*
X014841Y006496D03*
X013841Y006496D03*
D11*
X012841Y006546D03*
X011841Y006546D03*
X010841Y006546D03*
X010841Y005546D03*
X011841Y005546D03*
X012841Y005546D03*
D12*
X008591Y003896D03*
X008541Y002196D03*
D13*
X008541Y002146D01*
X008641Y002046D01*
X010841Y002046D01*
X011341Y001546D01*
X011411Y001496D01*
X010271Y001496D02*
X010241Y001546D01*
X010141Y001646D01*
X009341Y001646D01*
X011741Y002246D02*
X011841Y002146D01*
X014441Y002146D01*
X015341Y003046D01*
X015341Y005946D01*
X014341Y005946D01*
X013841Y006446D01*
X013841Y006496D01*
X013841Y006546D01*
X012841Y006546D01*
X011841Y006546D02*
X011341Y006546D01*
X011341Y005346D01*
X011641Y005046D01*
X012141Y005046D01*
X012241Y004946D01*
X013541Y004546D02*
X013841Y004846D01*
X013541Y004546D02*
X010641Y004546D01*
X010541Y004446D01*
X009541Y004946D02*
X011241Y003246D01*
X013841Y003246D01*
X014341Y003246D02*
X014841Y003246D01*
X014341Y002746D01*
X012341Y002746D01*
X012141Y002546D01*
X015741Y002946D02*
X015741Y001646D01*
X014841Y001646D01*
X014341Y003246D02*
X014341Y005046D01*
X013341Y006046D01*
X012341Y006046D01*
X011841Y005546D01*
D14*
X009341Y001646D03*
X011741Y002246D03*
X012141Y002546D03*
X015741Y002946D03*
X010541Y004446D03*
X009541Y004946D03*
X012241Y004946D03*
M02*
