%
M48
M72
T01C0.0200
T02C0.0320
T03C0.0400
%
T01
X9341Y1646
X11741Y2246
X12141Y2546
X15741Y2946
X10541Y4446
X9541Y4946
X12241Y4946
T02
X13841Y4846
X14841Y4846
X14841Y3246
X13841Y3246
X13841Y1646
X14841Y1646
X14841Y6496
X13841Y6496
T03
X12841Y6546
X11841Y6546
X10841Y6546
X10841Y5546
X11841Y5546
X12841Y5546
X8591Y3896
X8541Y2196
X10271Y1496
X11411Y1496
M30
