G75*
G70*
%OFA0B0*%
%FSLAX24Y24*%
%IPPOS*%
%LPD*%
%AMOC8*
5,1,8,0,0,1.08239X$1,22.5*
%
%ADD10C,0.0050*%
%ADD11C,0.0060*%
D10*
X007981Y001001D02*
X007981Y001136D01*
X008026Y001181D01*
X008071Y001136D01*
X008071Y001001D01*
X008161Y001001D02*
X008161Y001181D01*
X008116Y001181D01*
X008071Y001136D01*
X008276Y001136D02*
X008321Y001181D01*
X008411Y001181D01*
X008456Y001136D01*
X008456Y001046D01*
X008411Y001001D01*
X008321Y001001D01*
X008276Y001046D01*
X008276Y001136D01*
X008570Y001181D02*
X008705Y001181D01*
X008750Y001136D01*
X008750Y001046D01*
X008705Y001001D01*
X008570Y001001D01*
X008853Y001001D02*
X008898Y001001D01*
X008898Y001046D01*
X008853Y001046D01*
X008853Y001001D01*
X009004Y001001D02*
X009049Y001046D01*
X009049Y001226D01*
X009094Y001181D02*
X009004Y001181D01*
X009200Y001181D02*
X009291Y001181D01*
X009246Y001226D02*
X009246Y001046D01*
X009200Y001001D01*
X009405Y001091D02*
X009585Y001091D01*
X009585Y001046D02*
X009585Y001136D01*
X009540Y001181D01*
X009450Y001181D01*
X009405Y001136D01*
X009405Y001091D01*
X009450Y001001D02*
X009540Y001001D01*
X009585Y001046D01*
X009692Y001001D02*
X009782Y001001D01*
X009737Y001001D02*
X009737Y001271D01*
X009782Y001271D01*
X009933Y001271D02*
X009933Y001001D01*
X009978Y001001D02*
X009888Y001001D01*
X010093Y001046D02*
X010093Y001136D01*
X010138Y001181D01*
X010228Y001181D01*
X010273Y001136D01*
X010273Y001046D01*
X010228Y001001D01*
X010138Y001001D01*
X010093Y001046D01*
X010387Y001001D02*
X010522Y001001D01*
X010567Y001046D01*
X010567Y001136D01*
X010522Y001181D01*
X010387Y001181D01*
X010682Y001181D02*
X010682Y000956D01*
X010727Y000911D01*
X010772Y000911D01*
X010817Y001001D02*
X010682Y001001D01*
X010817Y001001D02*
X010862Y001046D01*
X010862Y001181D01*
X010976Y001136D02*
X010976Y001001D01*
X011112Y001001D01*
X011157Y001046D01*
X011112Y001091D01*
X010976Y001091D01*
X010976Y001136D02*
X011021Y001181D01*
X011112Y001181D01*
X011263Y001181D02*
X011263Y000956D01*
X011308Y000911D01*
X011353Y000911D01*
X011455Y001001D02*
X011500Y001001D01*
X011500Y001046D01*
X011455Y001046D01*
X011455Y001001D01*
X011615Y001046D02*
X011615Y001181D01*
X011795Y001181D02*
X011795Y001046D01*
X011750Y001001D01*
X011705Y001046D01*
X011660Y001001D01*
X011615Y001046D01*
X011909Y001046D02*
X011909Y001181D01*
X012090Y001181D02*
X012090Y001046D01*
X012045Y001001D01*
X012000Y001046D01*
X011955Y001001D01*
X011909Y001046D01*
X012204Y001046D02*
X012204Y001181D01*
X012384Y001181D02*
X012384Y001046D01*
X012339Y001001D01*
X012294Y001046D01*
X012249Y001001D01*
X012204Y001046D01*
X011263Y001271D02*
X011263Y001316D01*
X009978Y001271D02*
X009933Y001271D01*
D11*
X010414Y003876D02*
X010641Y003876D01*
X010414Y004103D01*
X010414Y004159D01*
X010470Y004216D01*
X010584Y004216D01*
X010641Y004159D01*
X011080Y004216D02*
X011080Y003876D01*
X011193Y003876D02*
X010966Y003876D01*
X010825Y003876D02*
X010768Y003876D01*
X010768Y003933D01*
X010825Y003933D01*
X010825Y003876D01*
X011334Y004103D02*
X011448Y003876D01*
X011561Y004103D01*
X011193Y004103D02*
X011080Y004216D01*
X011106Y004526D02*
X011106Y004753D01*
X011163Y004753D01*
X010917Y004753D02*
X010917Y004526D01*
X011049Y004526D02*
X011163Y004526D01*
X011531Y004526D02*
X011531Y004866D01*
X011304Y004866D01*
X011106Y004866D02*
X011106Y004923D01*
X010917Y004639D02*
X010804Y004753D01*
X010747Y004753D01*
X010610Y004696D02*
X010554Y004753D01*
X010440Y004753D01*
X010384Y004696D01*
X010384Y004639D01*
X010610Y004639D01*
X010610Y004583D02*
X010610Y004696D01*
X010610Y004583D02*
X010554Y004526D01*
X010440Y004526D01*
X011418Y004696D02*
X011531Y004696D01*
X012041Y004696D02*
X012041Y004639D01*
X012268Y004639D01*
X012268Y004583D02*
X012268Y004696D01*
X012211Y004753D01*
X012098Y004753D01*
X012041Y004696D01*
X012211Y004526D02*
X012268Y004583D01*
X012211Y004526D02*
X012098Y004526D01*
X012405Y004526D02*
X012575Y004639D01*
X012405Y004753D01*
X012716Y004696D02*
X012716Y004526D01*
X012886Y004526D01*
X012943Y004583D01*
X012886Y004639D01*
X012716Y004639D01*
X012716Y004696D02*
X012773Y004753D01*
X012886Y004753D01*
X013198Y004696D02*
X013311Y004696D01*
X013311Y004526D02*
X013311Y004866D01*
X013084Y004866D01*
X012575Y004866D02*
X012575Y004526D01*
M02*
